<svg xmlns="http://www.w3.org/2000/svg" width="1920" height="1920" style="shape-rendering:geometricPrecision;text-rendering:geometricPrecision;image-rendering:optimizeQuality;fill-rule:evenodd;clip-rule:evenodd"><path fill="#e3e2dd" d="M1414.5 190.5c31.15 21.3 46.49 50.8 46 88.5.67 20.667 1.33 41.333 2 62-.65 44.297 18.69 77.963 58 101a170.532 170.532 0 0 0 41 16l64 13c28.15 5.855 49.98 20.688 65.5 44.5 5.73 10.857 9.23 22.357 10.5 34.5-.82 27.162-7.32 53.995-19.5 80.5a2270.929 2270.929 0 0 0-38 85c-7.62 19.276-11.12 38.776-10.5 58.5 3.97 22.612 15.31 40.612 34 54a1961.282 1961.282 0 0 0 49 34c22.87 18.902 30.04 42.069 21.5 69.5-5.78 18.561-14.45 35.561-26 51-18.1 22.1-35.43 44.76-52 68-8.04 12.46-13.54 25.96-16.5 40.5-.48 11.69 1.36 23.52 5.5 35.5 8.41 18.89 17.41 37.56 27 56 9.5 17.86 13.5 36.86 12 57-3.71 23.59-15.21 42.43-34.5 56.5-8.33 5.83-17 11.17-26 16a1795.214 1795.214 0 0 0-72 35c-23.55 12.55-41.39 30.72-53.5 54.5-6.66 16-10.16 32.17-10.5 48.5-.67 3.33-1.33 6.67-2 10 .13 21.64-3.37 43.48-10.5 65.5-13.7 29.44-36.53 47.28-68.5 53.5-20.19 3.11-40.36 3.28-60.5.5l-1 1c-24.36-3.48-49.03-6.81-74-10h-31c-20.58 3.96-37.25 14.29-50 31a1148.49 1148.49 0 0 0-45 65c-11.82 16.82-25.99 31.32-42.5 43.5-14.73 9.14-30.57 12.98-47.5 11.5-19.02-3.56-37.19-9.73-54.5-18.5a4256.12 4256.12 0 0 1-77-41c-25.634-13.77-52.801-22.93-81.5-27.5-21.48-.75-41.98 4.42-61.5 15.5a538.644 538.644 0 0 0-55 40c-39.218 29.54-80.551 37.21-124 23-14.507-6.35-27.007-15.51-37.5-27.5-5.333-7.33-10.667-14.67-16-22a1536.317 1536.317 0 0 0-47-81c-21.911-30.14-50.911-43.8-87-41-29.004 3.5-58.337 8.5-88 15-.333-.33-.667-.67-1-1a240.232 240.232 0 0 1-15 3c-.333-.33-.667-.67-1-1-19.509 3.42-40.342 1.58-62.5-5.5-10.18-4.25-19.513-9.75-28-16.5-23.896-23.14-37.063-51.47-39.5-85l-.5-23a1313 1313 0 0 1 4.5-78c2.23-24.49-1.103-48.16-10-71-10.601-17.93-25.101-31.77-43.5-41.5-23.491-11.57-45.825-24.9-67-40-28.462-25.76-43.962-57.93-46.5-96.5-3.07-30.38 3.597-58.38 20-84a384.695 384.695 0 0 1 16-21 1873.651 1873.651 0 0 1 52-51 162.137 162.137 0 0 0 25-35c6.62-17.147 8.287-34.814 5-53-3.912-19.495-10.912-37.828-21-55a903.432 903.432 0 0 1-34-61c-13.538-29.227-18.871-59.894-16-92 3.792-24.102 15.958-42.602 36.5-55.5a398.999 398.999 0 0 1 68-31c22.78-8.462 42.614-21.295 59.5-38.5 13.883-20.633 22.883-43.3 27-68a308.037 308.037 0 0 0 4-30 2262.918 2262.918 0 0 1 5-62c2.827-37.151 17.994-67.985 45.5-92.5 21.777-15.922 46.277-23.422 73.5-22.5a5526.525 5526.525 0 0 1 74 5c40.662 1.52 67.662-16.813 81-55a1252.568 1252.568 0 0 0 16-54c6.64-26.464 19.807-48.964 39.5-67.5 32.232-23.76 67.232-28.76 105-15 25.945 12.3 50.612 26.633 74 43 16.343 10.67 34.009 18.337 53 23 22.859 4.559 44.859 1.893 66-8a242.963 242.963 0 0 0 26-14 2401.784 2401.784 0 0 1 69-46c22.66-13.554 47.16-21.054 73.5-22.5 35.32 2.163 64.99 16.163 89 42l9 13a790.602 790.602 0 0 0 32 68c6.88 11.216 16.05 20.049 27.5 26.5 7.51 2.301 15.18 2.968 23 2 24.05-2.96 48.05-6.293 72-10 24.75-3.633 49.41-3.3 74 1 8.87 2.443 17.21 5.943 25 10.5Z" style="opacity:1"/><path fill="#cdcbbf" d="M1414.5 190.5a141.674 141.674 0 0 1 24 13.5 792.926 792.926 0 0 1 37 30l120 108c49.45 46.103 95.28 95.27 137.5 147.5a2945.314 2945.314 0 0 1 79 103c15.95 21.546 29.61 44.546 41 69a92.17 92.17 0 0 1 5 18 764.073 764.073 0 0 0 3.5 42.5c-.75 21.071-4.58 41.571-11.5 61.5a1990.267 1990.267 0 0 0-33 95c-6.25 20.857-6.92 41.857-2 63 3.59 11.841 9.25 22.507 17 32 12.93 13.936 26.76 26.77 41.5 38.5 22.29 20.19 30.12 45.03 23.5 74.5-4.21 19.08-11.21 37.08-21 54a1401.84 1401.84 0 0 0-44 75c-11.49 22.25-14.49 45.58-9 70a788.861 788.861 0 0 0 17 52c17.01 47.78 6.85 88.62-30.5 122.5a504.856 504.856 0 0 1-31 22c-24.2 13.6-47.2 28.93-69 46-19.15 16.15-32.99 35.98-41.5 59.5-7.2 27.79-14.87 55.46-23 83-19.71 46.3-54.88 70.47-105.5 72.5-25.7.83-51.37.17-77-2-14.67-.67-29.33-.67-44 0-13.84.95-26.51 5.28-38 13-5.96 4.29-11.62 8.96-17 14a2702.752 2702.752 0 0 0-57.5 66.5c-14.17 15.18-30.33 27.68-48.5 37.5-20.64 7.91-41.97 10.58-64 8-17.8-2.45-35.13-6.78-52-13a3112.19 3112.19 0 0 1-69-29c-21.59-9.19-44.09-14.36-67.5-15.5-18.413.55-36.246 4.05-53.5 10.5a1565.09 1565.09 0 0 0-68 31c-37.83 14.7-76.83 18.7-117 12-30.231-5.52-59.231-14.85-87-28-14-6.67-28-13.33-42-20-42.667-22.67-85.333-45.33-128-68a3204.391 3204.391 0 0 1-253-192 312.596 312.596 0 0 1-34-32.5c8.487 6.75 17.82 12.25 28 16.5 22.158 7.08 42.991 8.92 62.5 5.5.333.33.667.67 1 1 5.028-.84 10.028-1.84 15-3 .333.33.667.67 1 1 29.663-6.5 58.996-11.5 88-15 36.089-2.8 65.089 10.86 87 41a1536.317 1536.317 0 0 1 47 81c5.333 7.33 10.667 14.67 16 22 10.493 11.99 22.993 21.15 37.5 27.5 43.449 14.21 84.782 6.54 124-23a538.644 538.644 0 0 1 55-40c19.52-11.08 40.02-16.25 61.5-15.5 28.699 4.57 55.866 13.73 81.5 27.5a4256.12 4256.12 0 0 0 77 41c17.31 8.77 35.48 14.94 54.5 18.5 16.93 1.48 32.77-2.36 47.5-11.5 16.51-12.18 30.68-26.68 42.5-43.5a1148.49 1148.49 0 0 1 45-65c12.75-16.71 29.42-27.04 50-31h31c24.97 3.19 49.64 6.52 74 10l1-1c20.14 2.78 40.31 2.61 60.5-.5 31.97-6.22 54.8-24.06 68.5-53.5 7.13-22.02 10.63-43.86 10.5-65.5.67-3.33 1.33-6.67 2-10 .34-16.33 3.84-32.5 10.5-48.5 12.11-23.78 29.95-41.95 53.5-54.5 23.76-12.21 47.76-23.88 72-35 9-4.83 17.67-10.17 26-16 19.29-14.07 30.79-32.91 34.5-56.5 1.5-20.14-2.5-39.14-12-57-9.59-18.44-18.59-37.11-27-56-4.14-11.98-5.98-23.81-5.5-35.5 2.96-14.54 8.46-28.04 16.5-40.5 16.57-23.24 33.9-45.9 52-68 11.55-15.439 20.22-32.439 26-51 8.54-27.431 1.37-50.598-21.5-69.5a1961.282 1961.282 0 0 1-49-34c-18.69-13.388-30.03-31.388-34-54-.62-19.724 2.88-39.224 10.5-58.5a2270.929 2270.929 0 0 1 38-85c12.18-26.505 18.68-53.338 19.5-80.5-1.27-12.143-4.77-23.643-10.5-34.5-15.52-23.812-37.35-38.645-65.5-44.5l-64-13a170.532 170.532 0 0 1-41-16c-39.31-23.037-58.65-56.703-58-101-.67-20.667-1.33-41.333-2-62 .49-37.7-14.85-67.2-46-88.5Z" style="opacity:1"/><path fill="#d7598b" d="M994.5 353.5c39.29.071 78.96 2.238 119 6.5 60.93 5.074 114.93 26.741 162 65 12.46 10.784 21.29 23.95 26.5 39.5 1.13 8.903.3 17.57-2.5 26a161.245 161.245 0 0 1-46 .5 1259.56 1259.56 0 0 1-77-14c-63.91-11.065-128.25-15.065-193-12-82.752 6.917-159.085 32.584-229 77-78.872 50.539-141.706 116.372-188.5 197.5-28.275 53.433-42.942 110.433-44 171a698.577 698.577 0 0 0 4 97c20.617 123.28 90.117 204.78 208.5 244.5 78.223 22.97 156.557 23.3 235 1 108-35.99 184.83-106.16 230.5-210.5 18.69-48.485 22.69-98.152 12-149-14.32-61.214-49.49-105.714-105.5-133.5-88.75-34.514-170.083-22.181-244 37-14.888 12.876-26.722 28.043-35.5 45.5-12.243 31.179-6.41 58.346 17.5 81.5 18.705 14.236 39.705 19.903 63 17 8.601-1.801 16.267-5.468 23-11l25-27c8.454-7.892 18.454-12.559 30-14 24.29-3.265 45.62 3.069 64 19 22.39 18.785 34.39 42.785 36 72-.2 15.633-4.37 30.13-12.5 43.5-22.91 34.89-53.74 60.39-92.5 76.5-48.52 19.81-98.186 25.81-149 18-43.86-6.05-83.527-22.05-119-48-30.644-28.79-47.81-64.29-51.5-106.5-5.171-62.79 3.829-124.123 27-184 25.827-59.839 67.327-105.339 124.5-136.5 93.456-49.688 192.12-64.688 296-45 60.94 14.975 117.27 39.975 169 75 23.27 19.937 42.1 43.437 56.5 70.5 54.6 100.619 65.93 205.952 34 316-40.43 126.41-116.27 225.58-227.5 297.5-61.27 38.65-127.94 62.65-200 72-72.552 11.22-145.218 12.22-218 3-108.173-19.99-199.673-69.82-274.5-149.5-27.553-31.41-48.219-67.07-62-107-71.289-209.589-40.289-402.255 93-578C570.557 480.421 689.391 405.921 835.5 374c52.508-11.855 105.508-18.688 159-20.5Z" style="opacity:1"/></svg>