<?xml version="1.0" encoding="UTF-8"?>
<!DOCTYPE svg PUBLIC "-//W3C//DTD SVG 1.1//EN" "http://www.w3.org/Graphics/SVG/1.1/DTD/svg11.dtd">
<svg xmlns="http://www.w3.org/2000/svg" version="1.1" width="1920px" height="1920px" style="shape-rendering:geometricPrecision; text-rendering:geometricPrecision; image-rendering:optimizeQuality; fill-rule:evenodd; clip-rule:evenodd" xmlns:xlink="http://www.w3.org/1999/xlink">
<g><path style="opacity:1" fill="#e3e2dd" d="M 1414.5,190.5 C 1445.65,211.8 1460.99,241.3 1460.5,279C 1461.17,299.667 1461.83,320.333 1462.5,341C 1461.85,385.297 1481.19,418.963 1520.5,442C 1533.47,449.101 1547.13,454.434 1561.5,458C 1582.83,462.333 1604.17,466.667 1625.5,471C 1653.65,476.855 1675.48,491.688 1691,515.5C 1696.73,526.357 1700.23,537.857 1701.5,550C 1700.68,577.162 1694.18,603.995 1682,630.5C 1668.75,658.583 1656.08,686.916 1644,715.5C 1636.38,734.776 1632.88,754.276 1633.5,774C 1637.47,796.612 1648.81,814.612 1667.5,828C 1683.66,839.58 1699.99,850.913 1716.5,862C 1739.37,880.902 1746.54,904.069 1738,931.5C 1732.22,950.061 1723.55,967.061 1712,982.5C 1693.9,1004.6 1676.57,1027.26 1660,1050.5C 1651.96,1062.96 1646.46,1076.46 1643.5,1091C 1643.02,1102.69 1644.86,1114.52 1649,1126.5C 1657.41,1145.39 1666.41,1164.06 1676,1182.5C 1685.5,1200.36 1689.5,1219.36 1688,1239.5C 1684.29,1263.09 1672.79,1281.93 1653.5,1296C 1645.17,1301.83 1636.5,1307.17 1627.5,1312C 1603.26,1323.12 1579.26,1334.79 1555.5,1347C 1531.95,1359.55 1514.11,1377.72 1502,1401.5C 1495.34,1417.5 1491.84,1433.67 1491.5,1450C 1490.83,1453.33 1490.17,1456.67 1489.5,1460C 1489.63,1481.64 1486.13,1503.48 1479,1525.5C 1465.3,1554.94 1442.47,1572.78 1410.5,1579C 1390.31,1582.11 1370.14,1582.28 1350,1579.5C 1349.67,1579.83 1349.33,1580.17 1349,1580.5C 1324.64,1577.02 1299.97,1573.69 1275,1570.5C 1264.67,1570.5 1254.33,1570.5 1244,1570.5C 1223.42,1574.46 1206.75,1584.79 1194,1601.5C 1178.26,1622.64 1163.26,1644.31 1149,1666.5C 1137.18,1683.32 1123.01,1697.82 1106.5,1710C 1091.77,1719.14 1075.93,1722.98 1059,1721.5C 1039.98,1717.94 1021.81,1711.77 1004.5,1703C 978.706,1689.6 953.04,1675.94 927.5,1662C 901.866,1648.23 874.699,1639.07 846,1634.5C 824.52,1633.75 804.02,1638.92 784.5,1650C 765.326,1662.17 746.993,1675.51 729.5,1690C 690.282,1719.54 648.949,1727.21 605.5,1713C 590.993,1706.65 578.493,1697.49 568,1685.5C 562.667,1678.17 557.333,1670.83 552,1663.5C 537.132,1635.98 521.465,1608.98 505,1582.5C 483.089,1552.36 454.089,1538.7 418,1541.5C 388.996,1545 359.663,1550 330,1556.5C 329.667,1556.17 329.333,1555.83 329,1555.5C 324.028,1556.66 319.028,1557.66 314,1558.5C 313.667,1558.17 313.333,1557.83 313,1557.5C 293.491,1560.92 272.658,1559.08 250.5,1552C 240.32,1547.75 230.987,1542.25 222.5,1535.5C 198.604,1512.36 185.437,1484.03 183,1450.5C 182.833,1442.83 182.667,1435.17 182.5,1427.5C 183.226,1401.46 184.726,1375.46 187,1349.5C 189.23,1325.01 185.897,1301.34 177,1278.5C 166.399,1260.57 151.899,1246.73 133.5,1237C 110.009,1225.43 87.6752,1212.1 66.5,1197C 38.0385,1171.24 22.5385,1139.07 20,1100.5C 16.9301,1070.12 23.5967,1042.12 40,1016.5C 45.0907,1009.32 50.4241,1002.32 56,995.5C 73.0284,978.138 90.3618,961.138 108,944.5C 117.885,933.947 126.219,922.28 133,909.5C 139.62,892.353 141.287,874.686 138,856.5C 134.088,837.005 127.088,818.672 117,801.5C 104.906,781.651 93.5727,761.317 83,740.5C 69.4621,711.273 64.1288,680.606 67,648.5C 70.7916,624.398 82.9583,605.898 103.5,593C 125.171,580.551 147.837,570.218 171.5,562C 194.28,553.538 214.114,540.705 231,523.5C 244.883,502.867 253.883,480.2 258,455.5C 259.825,445.566 261.158,435.566 262,425.5C 263.383,404.81 265.049,384.143 267,363.5C 269.827,326.349 284.994,295.515 312.5,271C 334.277,255.078 358.777,247.578 386,248.5C 410.678,250.001 435.345,251.668 460,253.5C 500.662,255.02 527.662,236.687 541,198.5C 546.738,180.619 552.072,162.619 557,144.5C 563.64,118.036 576.807,95.5357 596.5,77C 628.732,53.2409 663.732,48.2409 701.5,62C 727.445,74.3 752.112,88.6334 775.5,105C 791.843,115.67 809.509,123.337 828.5,128C 851.359,132.559 873.359,129.893 894.5,120C 903.485,115.842 912.152,111.175 920.5,106C 943.228,90.2744 966.228,74.9411 989.5,60C 1012.16,46.4458 1036.66,38.9458 1063,37.5C 1098.32,39.6631 1127.99,53.6631 1152,79.5C 1155,83.8333 1158,88.1667 1161,92.5C 1170.59,115.68 1181.26,138.347 1193,160.5C 1199.88,171.716 1209.05,180.549 1220.5,187C 1228.01,189.301 1235.68,189.968 1243.5,189C 1267.55,186.04 1291.55,182.707 1315.5,179C 1340.25,175.367 1364.91,175.7 1389.5,180C 1398.37,182.443 1406.71,185.943 1414.5,190.5 Z"/></g>
<g><path style="opacity:1" fill="#cdcbbf" d="M 1414.5,190.5 C 1422.93,194.216 1430.93,198.716 1438.5,204C 1451.12,213.621 1463.46,223.621 1475.5,234C 1515.5,270 1555.5,306 1595.5,342C 1644.95,388.103 1690.78,437.27 1733,489.5C 1760.1,523.264 1786.43,557.597 1812,592.5C 1827.95,614.046 1841.61,637.046 1853,661.5C 1855.28,667.332 1856.94,673.332 1858,679.5C 1858.77,693.704 1859.94,707.871 1861.5,722C 1860.75,743.071 1856.92,763.571 1850,783.5C 1838.2,814.888 1827.2,846.555 1817,878.5C 1810.75,899.357 1810.08,920.357 1815,941.5C 1818.59,953.341 1824.25,964.007 1832,973.5C 1844.93,987.436 1858.76,1000.27 1873.5,1012C 1895.79,1032.19 1903.62,1057.03 1897,1086.5C 1892.79,1105.58 1885.79,1123.58 1876,1140.5C 1860.58,1165.01 1845.91,1190.01 1832,1215.5C 1820.51,1237.75 1817.51,1261.08 1823,1285.5C 1828.06,1303.02 1833.73,1320.35 1840,1337.5C 1857.01,1385.28 1846.85,1426.12 1809.5,1460C 1799.44,1467.72 1789.11,1475.06 1778.5,1482C 1754.3,1495.6 1731.3,1510.93 1709.5,1528C 1690.35,1544.15 1676.51,1563.98 1668,1587.5C 1660.8,1615.29 1653.13,1642.96 1645,1670.5C 1625.29,1716.8 1590.12,1740.97 1539.5,1743C 1513.8,1743.83 1488.13,1743.17 1462.5,1741C 1447.83,1740.33 1433.17,1740.33 1418.5,1741C 1404.66,1741.95 1391.99,1746.28 1380.5,1754C 1374.54,1758.29 1368.88,1762.96 1363.5,1768C 1343.96,1789.87 1324.79,1812.04 1306,1834.5C 1291.83,1849.68 1275.67,1862.18 1257.5,1872C 1236.86,1879.91 1215.53,1882.58 1193.5,1880C 1175.7,1877.55 1158.37,1873.22 1141.5,1867C 1118.38,1857.61 1095.38,1847.94 1072.5,1838C 1050.91,1828.81 1028.41,1823.64 1005,1822.5C 986.587,1823.05 968.754,1826.55 951.5,1833C 928.595,1842.79 905.928,1853.12 883.5,1864C 845.67,1878.7 806.67,1882.7 766.5,1876C 736.269,1870.48 707.269,1861.15 679.5,1848C 665.5,1841.33 651.5,1834.67 637.5,1828C 594.833,1805.33 552.167,1782.67 509.5,1760C 422.043,1700.22 337.71,1636.22 256.5,1568C 244.362,1558.03 233.029,1547.2 222.5,1535.5C 230.987,1542.25 240.32,1547.75 250.5,1552C 272.658,1559.08 293.491,1560.92 313,1557.5C 313.333,1557.83 313.667,1558.17 314,1558.5C 319.028,1557.66 324.028,1556.66 329,1555.5C 329.333,1555.83 329.667,1556.17 330,1556.5C 359.663,1550 388.996,1545 418,1541.5C 454.089,1538.7 483.089,1552.36 505,1582.5C 521.465,1608.98 537.132,1635.98 552,1663.5C 557.333,1670.83 562.667,1678.17 568,1685.5C 578.493,1697.49 590.993,1706.65 605.5,1713C 648.949,1727.21 690.282,1719.54 729.5,1690C 746.993,1675.51 765.326,1662.17 784.5,1650C 804.02,1638.92 824.52,1633.75 846,1634.5C 874.699,1639.07 901.866,1648.23 927.5,1662C 953.04,1675.94 978.706,1689.6 1004.5,1703C 1021.81,1711.77 1039.98,1717.94 1059,1721.5C 1075.93,1722.98 1091.77,1719.14 1106.5,1710C 1123.01,1697.82 1137.18,1683.32 1149,1666.5C 1163.26,1644.31 1178.26,1622.64 1194,1601.5C 1206.75,1584.79 1223.42,1574.46 1244,1570.5C 1254.33,1570.5 1264.67,1570.5 1275,1570.5C 1299.97,1573.69 1324.64,1577.02 1349,1580.5C 1349.33,1580.17 1349.67,1579.83 1350,1579.5C 1370.14,1582.28 1390.31,1582.11 1410.5,1579C 1442.47,1572.78 1465.3,1554.94 1479,1525.5C 1486.13,1503.48 1489.63,1481.64 1489.5,1460C 1490.17,1456.67 1490.83,1453.33 1491.5,1450C 1491.84,1433.67 1495.34,1417.5 1502,1401.5C 1514.11,1377.72 1531.95,1359.55 1555.5,1347C 1579.26,1334.79 1603.26,1323.12 1627.5,1312C 1636.5,1307.17 1645.17,1301.83 1653.5,1296C 1672.79,1281.93 1684.29,1263.09 1688,1239.5C 1689.5,1219.36 1685.5,1200.36 1676,1182.5C 1666.41,1164.06 1657.41,1145.39 1649,1126.5C 1644.86,1114.52 1643.02,1102.69 1643.5,1091C 1646.46,1076.46 1651.96,1062.96 1660,1050.5C 1676.57,1027.26 1693.9,1004.6 1712,982.5C 1723.55,967.061 1732.22,950.061 1738,931.5C 1746.54,904.069 1739.37,880.902 1716.5,862C 1699.99,850.913 1683.66,839.58 1667.5,828C 1648.81,814.612 1637.47,796.612 1633.5,774C 1632.88,754.276 1636.38,734.776 1644,715.5C 1656.08,686.916 1668.75,658.583 1682,630.5C 1694.18,603.995 1700.68,577.162 1701.5,550C 1700.23,537.857 1696.73,526.357 1691,515.5C 1675.48,491.688 1653.65,476.855 1625.5,471C 1604.17,466.667 1582.83,462.333 1561.5,458C 1547.13,454.434 1533.47,449.101 1520.5,442C 1481.19,418.963 1461.85,385.297 1462.5,341C 1461.83,320.333 1461.17,299.667 1460.5,279C 1460.99,241.3 1445.65,211.8 1414.5,190.5 Z"/></g>
<g><path style="opacity:1" fill="#d7598b" d="M 994.5,353.5 C 1033.79,353.571 1073.46,355.738 1113.5,360C 1174.43,365.074 1228.43,386.741 1275.5,425C 1287.96,435.784 1296.79,448.95 1302,464.5C 1303.13,473.403 1302.3,482.07 1299.5,490.5C 1284.19,492.865 1268.86,493.032 1253.5,491C 1227.69,487.132 1202.03,482.465 1176.5,477C 1112.59,465.935 1048.25,461.935 983.5,465C 900.748,471.917 824.415,497.584 754.5,542C 675.628,592.539 612.794,658.372 566,739.5C 537.725,792.933 523.058,849.933 522,910.5C 521.084,942.924 522.417,975.258 526,1007.5C 546.617,1130.78 616.117,1212.28 734.5,1252C 812.723,1274.97 891.057,1275.3 969.5,1253C 1077.5,1217.01 1154.33,1146.84 1200,1042.5C 1218.69,994.015 1222.69,944.348 1212,893.5C 1197.68,832.286 1162.51,787.786 1106.5,760C 1017.75,725.486 936.417,737.819 862.5,797C 847.612,809.876 835.778,825.043 827,842.5C 814.757,873.679 820.59,900.846 844.5,924C 863.205,938.236 884.205,943.903 907.5,941C 916.101,939.199 923.767,935.532 930.5,930C 938.833,921 947.167,912 955.5,903C 963.954,895.108 973.954,890.441 985.5,889C 1009.79,885.735 1031.12,892.069 1049.5,908C 1071.89,926.785 1083.89,950.785 1085.5,980C 1085.3,995.633 1081.13,1010.13 1073,1023.5C 1050.09,1058.39 1019.26,1083.89 980.5,1100C 931.98,1119.81 882.314,1125.81 831.5,1118C 787.64,1111.95 747.973,1095.95 712.5,1070C 681.856,1041.21 664.69,1005.71 661,963.5C 655.829,900.71 664.829,839.377 688,779.5C 713.827,719.661 755.327,674.161 812.5,643C 905.956,593.312 1004.62,578.312 1108.5,598C 1169.44,612.975 1225.77,637.975 1277.5,673C 1300.77,692.937 1319.6,716.437 1334,743.5C 1388.6,844.119 1399.93,949.452 1368,1059.5C 1327.57,1185.91 1251.73,1285.08 1140.5,1357C 1079.23,1395.65 1012.56,1419.65 940.5,1429C 867.948,1440.22 795.282,1441.22 722.5,1432C 614.327,1412.01 522.827,1362.18 448,1282.5C 420.447,1251.09 399.781,1215.43 386,1175.5C 314.711,965.911 345.711,773.245 479,597.5C 570.557,480.421 689.391,405.921 835.5,374C 888.008,362.145 941.008,355.312 994.5,353.5 Z"/></g>
</svg>
